<?xml version="1.0" standalone="no"?>
<!DOCTYPE svg PUBLIC "-//W3C//DTD SVG 20010904//EN"
 "http://www.w3.org/TR/2001/REC-SVG-20010904/DTD/svg10.dtd">
<svg version="1.0" xmlns="http://www.w3.org/2000/svg"
 width="300.000000pt" height="300.000000pt" viewBox="0 0 300.000000 300.000000"
 preserveAspectRatio="xMidYMid meet">
<metadata>
Created by potrace 1.11, written by Peter Selinger 2001-2013
</metadata>
<g transform="translate(0.000000,300.000000) scale(0.100000,-0.100000)"
fill="#000000" stroke="none">
<path d="M1041 2659 c-256 -154 -468 -279 -473 -279 -4 0 -8 -4 -8 -10 0 -5
-4 -10 -9 -10 -12 0 -275 -159 -279 -169 -1 -4 277 -175 618 -379 l620 -373
378 227 c207 125 391 235 407 244 17 9 62 36 100 60 39 24 84 51 100 60 17 10
61 36 98 59 38 23 88 53 110 66 23 13 42 28 42 33 0 9 -1191 731 -1228 745 -7
2 -221 -121 -476 -274z"/>
<path d="M262 1429 l3 -642 623 -374 622 -373 174 105 c96 57 192 114 213 127
111 65 830 498 846 510 16 12 17 52 15 650 l-3 638 -205 -123 c-113 -68 -214
-128 -225 -135 -11 -7 -200 -120 -419 -252 l-399 -239 -26 18 c-20 14 -1177
708 -1214 728 -4 2 -6 -285 -5 -638z"/>
</g>
</svg>
